<?xml version="1.0" standalone="no"?>
<!DOCTYPE svg PUBLIC "-//W3C//DTD SVG 20010904//EN"
 "http://www.w3.org/TR/2001/REC-SVG-20010904/DTD/svg10.dtd">
<svg version="1.0" xmlns="http://www.w3.org/2000/svg"
 width="700.000000pt" height="700.000000pt" viewBox="0 0 700.000000 700.000000"
 preserveAspectRatio="xMidYMid meet">
<metadata>
Created by potrace 1.14, written by Peter Selinger 2001-2017
</metadata>
<g transform="translate(0.000000,700.000000) scale(0.100000,-0.100000)"
fill="#000000" stroke="none">
<path d="M371 6407 c-85 -17 -157 -77 -199 -167 l-26 -55 0 -2605 c0 -2472 1
-2608 18 -2658 24 -72 94 -142 169 -170 l58 -22 3112 0 3112 0 55 23 c65 27
92 48 129 102 58 84 55 -95 56 2700 0 1859 -2 2594 -10 2630 -21 94 -70 157
-160 203 l-50 27 -3110 0 c-1781 1 -3129 -3 -3154 -8z"/>
</g>
</svg>
